<svg height="512pt" viewBox="0 0 512.00116 512" width="512pt" xmlns="http://www.w3.org/2000/svg"><path d="m53.0625 421.867188c-5.515625 0-9.996094 4.480468-9.996094 9.996093 0 5.519531 4.480469 10 9.996094 10 5.519531 0 9.996094-4.480469 9.996094-10 0-5.515625-4.476563-9.996093-9.996094-9.996093zm0 0"/><path d="m53.0625 321.898438c-5.519531 0-9.996094 4.476562-9.996094 9.996093v59.984375c0 5.519532 4.476563 9.996094 9.996094 9.996094s9.996094-4.476562 9.996094-9.996094v-59.984375c0-5.519531-4.472656-9.996093-9.996094-9.996093zm0 0"/><path d="m503.339844 55.351562-51.28125-6.921874-21.144532-42.855469c-1.6875-3.414063-5.160156-5.574219-8.964843-5.574219-3.808594 0-7.28125 2.160156-8.96875 5.574219l-21.152344 42.867187c-52.28125 7.324219-50.496094 6.628906-52.855469 7.632813-2.398437-1.023438-.765625-.335938-52.855468-7.632813l-21.152344-42.867187c-1.683594-3.414063-5.160156-5.574219-8.964844-5.574219s-7.28125 2.160156-8.964844 5.574219l-21.15625 42.867187c-52.28125 7.324219-50.496094 6.628906-52.851562 7.632813-2.402344-1.023438-.765625-.335938-52.855469-7.632813l-21.15625-42.867187c-1.683594-3.414063-5.15625-5.574219-8.964844-5.574219-3.804687 0-7.28125 2.160156-8.964843 5.574219l-21.148438 42.855469-51.277344 6.921874c-3.878906.527344-7.09375 3.261719-8.230468 7.007813-1.132813 3.746094.019531 7.808594 2.953124 10.398437l37.84375 33.378907-8.03125 46.847656c-.644531 3.75.898438 7.539063 3.976563 9.777344s7.160156 2.53125 10.527344.761719l42.351562-22.265626 42.355469 22.265626c3.378906 1.777343 7.460938 1.464843 10.527344-.761719 3.078125-2.238281 4.617187-6.027344 3.976562-9.777344l-8.046875-46.925781 34.164063-30.863282 34.160156 30.863282-8.046875 46.925781c-.644531 3.75.898437 7.539063 3.976563 9.777344 3.070312 2.226562 7.152343 2.539062 10.53125.761719l31.324218-16.46875c-4.511718 36.796874-23.960937 67.984374-59.09375 94.910156-.574218.421875-4.078125 2.804687-25.070312 15.65625-9.070313 5.550781-35.800782 18.617187-58.429688 29.925781-5.097656-9.304687-14.984375-15.628906-26.320312-15.628906h-65.980469c-5.519531 0-9.9960938 4.472656-9.9960938 9.996093v199.9375c0 5.519532 4.4765628 9.996094 9.9960938 9.996094h65.980469c11.445312 0 21.410156-6.449218 26.464844-15.902344 55.871093 24.746094 130.757812 35.894532 182.910156 35.894532h60.539062c22.089844 0 39.988282-17.890625 39.988282-39.984375 0-8.222657-2.496094-15.871094-6.765626-22.230469 15.445313-5.402344 26.757813-20.164062 26.757813-37.75 0-8.222656-2.496094-15.871094-6.765625-22.234375 15.445312-5.402344 26.761719-20.160156 26.761719-37.75 0-11.929687-5.257813-22.644531-13.570313-29.980469 8.796875-7.769531 13.570313-18.570312 13.570313-30 0-22.046875-17.941407-39.988281-39.988281-39.988281h-74.820313c10.199219-27.582031 14.839844-61.875 14.839844-86.691406v-15.273438c0-15.746093-7.289063-30.683593-20.566407-40.378906l-.601562-3.515625 34.164062-30.867188 34.164063 30.867188-8.050781 46.921875c-.640625 3.75.898437 7.542969 3.980468 9.777344 3.078126 2.238281 7.160157 2.53125 10.527344.761719l42.351563-22.265626 42.351562 22.265626c3.382813 1.777343 7.460938 1.46875 10.527344-.761719 3.078125-2.234375 4.621094-6.027344 3.980469-9.777344l-8.035156-46.84375 37.84375-33.382813c2.933593-2.585937 4.089843-6.648437 2.953124-10.394531-1.136718-3.75-4.351562-6.484375-8.230468-7.011719zm-381.960938 39.558594c-2.542968 2.296875-3.730468 5.734375-3.152344 9.109375l5.554688 32.378907-29.078125-15.285157c-1.453125-.765625-3.054687-1.152343-4.652344-1.152343-1.59375 0-3.195312.386718-4.648437 1.152343l-29.078125 15.285157 5.554687-32.378907c.585938-3.417969-.640625-6.894531-3.242187-9.1875l-25.613281-22.59375 34.863281-4.707031c3.296875-.445312 6.15625-2.503906 7.628906-5.484375l14.535156-29.457031 14.539063 29.457031c1.46875 2.976563 4.316406 5.027344 7.601562 5.480469l34.277344 4.710937zm-35.324218 366.945313c0 5.511719-4.484376 9.996093-10 9.996093h-55.980469v-179.941406h55.980469c5.515624 0 10 4.484375 10 9.996094zm169.945312-209.933594c-5.519531 0-9.996094 4.476563-9.996094 9.996094 0 5.523437 4.476563 9.996093 9.996094 9.996093h129.957031c11.027344 0 19.996094 8.96875 19.996094 19.996094 0 11.039063-8.953125 19.992188-19.996094 19.992188h-69.976562c-5.519531 0-9.996094 4.476562-9.996094 9.996094 0 5.523437 4.476563 9.996093 9.996094 9.996093h69.976562c11.027344 0 19.996094 8.972657 19.996094 19.996094 0 11.039063-8.953125 19.992187-19.996094 19.992187-14.238281 0-55.707031 0-69.976562 0-5.519531 0-9.996094 4.476563-9.996094 9.996094 0 5.523438 4.476563 10 9.996094 10h49.984375c11.023437 0 19.992187 8.96875 19.992187 19.992188 0 11.042968-8.949219 19.992187-19.992187 19.992187h-49.984375c-5.519531 0-9.996094 4.476563-9.996094 10 0 5.519531 4.476563 9.996094 9.996094 9.996094h29.992187c11.023438 0 19.992188 8.96875 19.992188 19.992187 0 11.042969-8.949219 19.996094-19.992188 19.996094h-60.542968c-51.492188 0-125.902344-11.246094-179.382813-36.265625v-147.515625c27.0625-13.578125 54.6875-26.957031 65.203125-33.394531 24.011719-14.703125 25.875-16.132813 26.761719-16.816406 45.691406-35.019531 67.929687-76.796875 67.984375-127.710938 0-.039062 0-.074219 0-.113281 0-.027344 0-.046875 0-.070312 0-5.523438 4.480468-10 10-10 16.417968 0 29.988281 13.296874 29.988281 29.992187v15.277344c0 24.378906-5.148437 60.777343-16.375 86.691406zm31.324219-157.011719c-1.691407 1.53125-2.769531 3.574219-3.136719 5.761719-2.699219-.449219-5.4375-.703125-8.195312-.703125-14.472657 0-26.402344 10.207031-29.300782 23.589844l-24.417968 12.839844 5.550781-32.378907c.578125-3.375-.609375-6.8125-3.148438-9.109375l-25.09375-22.671875 34.277344-4.710937c3.285156-.453125 6.136719-2.503906 7.601563-5.480469l14.539062-29.457031 14.535156 29.457031c1.46875 2.976563 4.320313 5.027344 7.605469 5.480469l34.277344 4.710937zm166.039062-.078125c-2.601562 2.292969-3.828125 5.769531-3.242187 9.1875l5.554687 32.378907-29.074219-15.285157c-1.457031-.765625-3.054687-1.148437-4.652343-1.148437-1.597657 0-3.195313.382812-4.652344 1.148437l-29.074219 15.285157 5.550782-32.378907c.578124-3.375-.609376-6.8125-3.148438-9.109375l-25.09375-22.671875 34.277344-4.710937c3.285156-.453125 6.136718-2.503906 7.601562-5.480469l14.539063-29.457031 14.535156 29.457031c1.472656 2.984375 4.332031 5.039063 7.628906 5.484375l34.867188 4.707031zm0 0"/></svg>